%FSLAX44Y44*%
%MOMM*%
G71*
G01*
G75*
G04 Layer_Physical_Order=1*
G04 Layer_Color=255*
%ADD10R,1.2000X1.4000*%
%ADD11C,1.0000*%
%ADD12C,0.8000*%
%ADD13C,1.0160*%
%ADD14C,0.2540*%
%ADD15C,1.5240*%
D10*
X899050Y824230D02*
D03*
X917050D02*
D03*
Y796290D02*
D03*
X899050D02*
D03*
Y770890D02*
D03*
X917050D02*
D03*
D11*
X910590Y858520D02*
X916940Y852170D01*
X801370Y858520D02*
X910590D01*
X781050Y838200D02*
X801370Y858520D01*
X911860Y699770D02*
X928370Y716280D01*
X791210Y699770D02*
X911860D01*
X782320Y708660D02*
X791210Y699770D01*
X951230Y741680D02*
X977900Y768350D01*
X904240Y741680D02*
X948690D01*
X977900Y797560D02*
X988060D01*
X1000760Y784860D01*
X977900Y822960D02*
Y836930D01*
X962660Y852170D02*
X977900Y836930D01*
X916940Y852170D02*
X962660D01*
X963930Y716280D02*
X1000760Y753110D01*
Y784860D01*
X928370Y716280D02*
X963930D01*
X859790Y796290D02*
X899160D01*
X883920Y721360D02*
X904240Y741680D01*
X858520Y824230D02*
X897890D01*
X796290Y772160D02*
X807720D01*
X781050Y787400D02*
X796290Y772160D01*
X781050Y787400D02*
Y838200D01*
X782320Y731520D02*
X797560Y746760D01*
X782320Y708660D02*
Y731520D01*
X797560Y746760D02*
X807720D01*
X833120Y734060D02*
Y759460D01*
Y784860D01*
X858520Y721360D02*
X883920D01*
X845820D02*
X858520D01*
X833120Y734060D02*
X845820Y721360D01*
X918320Y770890D02*
X949960D01*
X919700Y796290D02*
X948690D01*
X919590Y824230D02*
X948690D01*
D12*
Y741680D02*
X951230D01*
X977900Y768350D02*
Y772160D01*
D13*
X858520Y770890D02*
X897890D01*
X833120Y810260D02*
Y835660D01*
Y784860D02*
Y810260D01*
D14*
X858520Y824230D02*
X862330Y826770D01*
X858520Y797560D02*
X859790Y796290D01*
D15*
X833120Y810260D02*
D03*
Y734060D02*
D03*
Y759460D02*
D03*
Y784860D02*
D03*
Y835660D02*
D03*
X858520Y721360D02*
D03*
Y746760D02*
D03*
Y772160D02*
D03*
Y797560D02*
D03*
Y822960D02*
D03*
X807720D02*
D03*
Y797560D02*
D03*
Y772160D02*
D03*
Y746760D02*
D03*
Y721360D02*
D03*
X977900Y772160D02*
D03*
Y797560D02*
D03*
Y822960D02*
D03*
X952500Y772160D02*
D03*
Y797560D02*
D03*
Y822960D02*
D03*
M02*
